<svg version="1.1" xmlns="http://www.w3.org/2000/svg" viewBox="0 0 250 250"><desc>Created with Snap</desc><defs></defs><g transform="matrix(0.0355,0,0,0.0355,9.4442,120.1689)"><g><g transform="matrix(1.024,0,0,-1.024,0,0)"><path d="M436 559Q425 578 354 578Q261 578 213 515Q165 452 165 333Q165 86 350 86Q353 86 376 86Q400 86 421 92Q442 99 446 106Q450 113 450 128L450 208L552 201L552 28Q474 -13 354 -13Q201 -13 120 73Q40 159 40 329Q40 423 67 493Q94 563 140 602Q230 677 354 677Q454 677 542 636L542 466L440 459L440 537Q440 552 436 559ZM1109 198L1109 0L634 0L634 81L667 84Q696 87 696 112L696 577L639 580L639 665L880 665L880 584L847 581Q818 578 818 549L818 103L984 103Q998 103 1002 110Q1007 118 1007 135L1007 205L1109 198ZM1484 677Q1603 677 1683 593Q1763 509 1763 336Q1763 164 1683 75Q1604 -13 1468 -13Q1333 -13 1256 75Q1179 163 1179 331Q1179 423 1206 492Q1233 562 1277 600Q1366 677 1484 677ZM1304 336Q1304 88 1476 88Q1568 88 1605 164Q1639 231 1639 328Q1639 415 1609 488Q1592 528 1557 551Q1523 574 1468 574Q1413 574 1373 538Q1334 502 1319 451Q1304 400 1304 336ZM2004 546L2138 143L2143 143L2283 576L2222 580L2222 665L2452 665L2452 584L2419 581Q2406 580 2400 573Q2394 567 2388 551L2199 0L2069 0L1865 577L1808 580L1808 665L2066 665L2066 584L2033 581Q2002 579 2002 557Q2002 552 2004 546ZM2966 178L2966 0L2491 0L2491 81L2524 84Q2553 87 2553 112L2553 577L2496 580L2496 665L2954 665L2954 499L2852 492L2852 532Q2852 549 2847 556Q2842 563 2823 563L2675 563L2675 392L2906 392L2906 290L2675 290L2675 103L2836 103Q2854 103 2859 110Q2864 118 2864 135L2864 185L2966 178ZM3247 90Q3367 90 3367 186Q3367 236 3314 260Q3286 274 3241 286Q3197 298 3167 310Q3138 323 3108 345Q3049 389 3049 480Q3049 572 3112 624Q3176 677 3278 677Q3381 677 3469 636L3469 486L3367 479L3367 537Q3367 552 3363 559Q3352 578 3292 578Q3233 578 3204 557Q3176 536 3176 492Q3176 460 3200 436Q3216 420 3247 409Q3279 399 3314 388Q3350 377 3377 364Q3405 351 3435 328Q3496 283 3496 189Q3496 95 3428 41Q3361 -13 3250 -13Q3140 -13 3052 28L3052 186L3154 193L3154 132Q3154 117 3158 110Q3162 103 3182 96Q3203 90 3247 90ZM3746 112L3746 566L3668 566Q3645 566 3645 535L3645 488L3543 495L3543 665L4066 665L4066 495L3964 488L3964 535Q3964 552 3959 559Q3954 566 3935 566L3867 566L3867 88L3946 85L3946 0L3664 0L3664 81L3717 84Q3746 87 3746 112ZM4426 677Q4545 677 4625 593Q4705 509 4705 336Q4705 164 4625 75Q4546 -13 4410 -13Q4275 -13 4198 75Q4121 163 4121 331Q4121 423 4148 492Q4175 562 4219 600Q4308 677 4426 677ZM4246 336Q4246 88 4418 88Q4510 88 4547 164Q4581 231 4581 328Q4581 415 4551 488Q4534 528 4499 551Q4465 574 4410 574Q4355 574 4315 538Q4276 502 4261 451Q4246 400 4246 336ZM5026 0L4777 0L4777 81L4810 84Q4839 87 4839 112L4839 577L4782 580L4782 665L5055 665Q5171 665 5233 622Q5295 579 5295 481Q5295 413 5259 369Q5224 325 5175 305Q5211 292 5232 244L5304 87L5361 85L5361 0L5114 0L5114 81L5143 84Q5166 87 5166 102Q5166 108 5162 116L5115 216Q5104 241 5090 251Q5077 262 5052 262L4961 262L4961 88L5026 85L5026 0ZM4961 568L4961 357L5048 357Q5171 357 5171 467Q5171 530 5138 549Q5106 568 5034 568L4961 568ZM5880 178L5880 0L5405 0L5405 81L5438 84Q5467 87 5467 112L5467 577L5410 580L5410 665L5868 665L5868 499L5766 492L5766 532Q5766 549 5761 556Q5756 563 5737 563L5589 563L5589 392L5820 392L5820 290L5589 290L5589 103L5750 103Q5768 103 5773 110Q5778 118 5778 135L5778 185L5880 178Z" fill="#343333" style=""></path></g></g><g transform="matrix(0.75,0,0,0.75,0,957.952)"><g transform="matrix(1.024,0,0,-1.024,0,0)"><path d="M525 610L407 168Q401 145 396 128Q391 112 391 98Q391 66 417 53Q443 40 506 40L494 0L146 0L157 40Q187 40 209 44Q231 48 248 60Q266 72 278 95Q291 119 302 158L424 614Q433 650 433 674Q433 703 420 715Q407 728 378 728Q290 728 225 683Q161 638 118 557L78 557L173 770L841 770L821 557L783 557Q783 653 747 690Q712 728 642 728Q617 728 599 723Q582 718 568 705Q555 692 544 669Q534 646 525 610ZM1136 311Q1153 362 1160 392Q1168 422 1168 445Q1168 468 1160 477Q1153 487 1135 487Q1104 487 1074 463Q1044 439 1013 388Q983 337 950 258Q917 179 880 69L857 0L773 0L971 678Q978 703 982 722Q986 741 986 752Q986 772 967 780Q948 788 897 790L904 830L1108 830L994 444L997 442Q1029 489 1071 514Q1113 540 1159 540Q1207 540 1232 512Q1257 484 1257 431Q1257 398 1247 354Q1237 310 1216 253Q1196 199 1185 168Q1174 137 1169 120Q1164 104 1162 98Q1161 92 1161 88Q1161 65 1180 65Q1200 65 1229 88Q1259 112 1289 154L1317 133Q1301 104 1277 78Q1254 52 1226 32Q1199 13 1170 1Q1142 -10 1117 -10Q1090 -10 1078 5Q1066 20 1066 53Q1066 70 1069 89Q1072 108 1079 136Q1087 165 1100 206Q1114 248 1136 311ZM1693 154L1725 133Q1638 -10 1511 -10Q1442 -10 1405 32Q1368 75 1368 153Q1368 222 1396 291Q1425 360 1471 415Q1517 471 1574 505Q1631 540 1688 540Q1736 540 1766 515Q1797 491 1797 453Q1797 418 1771 381Q1745 344 1700 311Q1656 278 1596 251Q1537 224 1470 209Q1468 195 1467 181Q1466 168 1466 154Q1466 45 1543 45Q1580 45 1619 74Q1659 103 1693 154ZM1668 493Q1642 493 1614 473Q1586 453 1560 419Q1535 386 1514 343Q1493 300 1480 254Q1528 267 1569 288Q1610 309 1639 335Q1669 362 1686 391Q1703 421 1703 451Q1703 493 1668 493ZM2059 0L2070 40Q2103 40 2124 45Q2146 50 2160 63Q2175 77 2185 99Q2195 122 2204 158L2320 599Q2327 625 2330 644Q2334 663 2334 677Q2334 710 2311 720Q2288 730 2234 730L2245 770L2791 770L2791 568L2753 568Q2740 616 2724 646Q2708 677 2687 694Q2667 712 2641 719Q2616 726 2585 726L2455 726L2377 429L2445 429Q2472 429 2491 434Q2510 439 2525 451Q2541 464 2554 486Q2568 508 2584 543L2621 543L2551 227L2511 227Q2514 263 2514 289Q2514 339 2499 362Q2484 385 2444 385L2364 385L2307 170Q2298 137 2298 114Q2298 78 2325 60Q2352 43 2420 43L2409 0L2059 0ZM3076 488Q3038 488 2997 453Q2957 418 2924 365Q2891 313 2870 252Q2849 192 2849 140Q2849 104 2864 82Q2879 61 2905 61Q2928 61 2953 79Q2978 98 3001 128Q3025 159 3046 198Q3067 237 3083 278Q3099 320 3108 360Q3117 400 3117 432Q3117 458 3106 473Q3095 488 3076 488ZM3158 474L3179 530L3262 530L3205 377Q3191 339 3177 296Q3164 253 3153 213Q3143 173 3137 140Q3131 107 3131 91Q3131 62 3150 62Q3164 62 3190 91Q3217 120 3250 166L3276 145Q3234 71 3185 30Q3137 -10 3092 -10Q3069 -10 3056 7Q3044 25 3044 65Q3044 74 3044 86Q3045 98 3047 118L3043 119Q3028 91 3007 67Q2987 44 2963 26Q2939 9 2913 -1Q2887 -10 2862 -10Q2811 -10 2782 28Q2754 67 2754 135Q2754 204 2783 276Q2812 348 2858 406Q2904 465 2960 502Q3016 540 3070 540Q3103 540 3124 524Q3145 509 3158 474ZM3391 387Q3391 420 3403 448Q3416 476 3438 496Q3460 517 3490 528Q3521 540 3557 540Q3605 540 3637 516Q3669 492 3669 454Q3669 433 3657 421Q3646 409 3626 409Q3603 409 3593 422Q3583 436 3576 452Q3569 469 3561 483Q3553 497 3534 497Q3512 497 3497 478Q3482 459 3482 431Q3482 398 3501 369Q3521 341 3545 310Q3569 279 3588 242Q3608 205 3608 155Q3608 121 3593 91Q3579 61 3554 38Q3530 16 3498 3Q3466 -10 3432 -10Q3372 -10 3336 16Q3301 42 3301 84Q3301 113 3314 129Q3328 146 3351 146Q3394 146 3400 87Q3403 55 3410 44Q3418 34 3441 34Q3477 34 3498 55Q3519 77 3519 115Q3519 155 3499 186Q3479 217 3455 246Q3431 276 3411 309Q3391 342 3391 387ZM4051 311Q4068 362 4075 392Q4083 422 4083 445Q4083 468 4075 477Q4068 487 4050 487Q4019 487 3989 463Q3959 439 3928 388Q3898 337 3865 258Q3832 179 3795 69L3772 0L3688 0L3886 678Q3893 703 3897 722Q3901 741 3901 752Q3901 772 3882 780Q3863 788 3812 790L3819 830L4023 830L3909 444L3912 442Q3944 489 3986 514Q4028 540 4074 540Q4122 540 4147 512Q4172 484 4172 431Q4172 398 4162 354Q4152 310 4131 253Q4111 199 4100 168Q4089 137 4084 120Q4079 104 4077 98Q4076 92 4076 88Q4076 65 4095 65Q4115 65 4144 88Q4174 112 4204 154L4232 133Q4216 104 4192 78Q4169 52 4141 32Q4114 13 4085 1Q4057 -10 4032 -10Q4005 -10 3993 5Q3981 20 3981 53Q3981 70 3984 89Q3987 108 3994 136Q4002 165 4015 206Q4029 248 4051 311ZM4355 202L4400 330Q4414 369 4420 393Q4426 417 4426 431Q4426 445 4421 449Q4417 454 4412 454Q4401 454 4388 443Q4375 433 4362 419Q4349 405 4339 391Q4329 377 4325 369L4296 387Q4308 409 4329 436Q4351 463 4378 486Q4405 509 4434 524Q4463 540 4489 540Q4514 540 4526 525Q4539 511 4539 473Q4539 444 4521 395Q4504 346 4476 269L4439 168Q4437 163 4433 152Q4430 142 4426 130Q4423 119 4420 108Q4418 97 4418 90Q4418 81 4423 74Q4428 67 4439 67Q4454 67 4470 79Q4486 92 4501 109Q4516 126 4528 143Q4540 161 4546 171L4576 154Q4564 130 4543 101Q4523 72 4497 47Q4471 23 4440 6Q4409 -10 4376 -10Q4347 -10 4332 5Q4318 20 4318 55Q4318 84 4327 117Q4337 151 4355 202ZM4547 704Q4522 704 4503 721Q4485 738 4485 765Q4485 792 4503 811Q4521 830 4547 830Q4575 830 4593 811Q4611 792 4611 766Q4611 740 4592 722Q4573 704 4547 704ZM4800 -10Q4766 -10 4736 3Q4707 17 4685 43Q4663 69 4650 106Q4637 144 4637 191Q4637 256 4661 319Q4686 382 4726 431Q4766 480 4817 510Q4869 540 4924 540Q4960 540 4990 526Q5021 513 5042 487Q5064 462 5076 426Q5089 391 5089 348Q5089 285 5064 221Q5039 157 4998 106Q4958 55 4906 22Q4854 -10 4800 -10ZM4806 40Q4840 40 4873 75Q4907 110 4933 163Q4960 217 4976 280Q4993 343 4993 400Q4993 453 4974 473Q4956 493 4924 493Q4902 493 4879 477Q4857 462 4837 435Q4817 408 4799 373Q4782 338 4769 299Q4756 260 4749 219Q4742 179 4742 142Q4742 86 4760 63Q4778 40 4806 40ZM5561 488Q5537 488 5506 463Q5476 439 5444 398Q5413 358 5384 306Q5355 254 5335 200L5261 0L5173 0L5247 229Q5265 284 5277 323Q5289 362 5296 388Q5304 415 5307 431Q5310 448 5310 458Q5310 485 5293 485Q5282 485 5267 471Q5252 457 5236 434Q5221 412 5207 383Q5193 354 5183 324L5153 339Q5188 442 5231 491Q5275 540 5331 540Q5363 540 5376 522Q5390 504 5390 461Q5390 410 5373 370L5376 367Q5427 457 5479 498Q5532 540 5594 540Q5638 540 5661 519Q5684 498 5684 459Q5684 446 5681 430Q5679 414 5673 391Q5667 369 5656 338Q5646 307 5631 262Q5608 194 5593 148Q5578 102 5578 83Q5578 68 5588 68Q5602 68 5629 91Q5656 114 5702 165L5728 151Q5712 121 5686 92Q5661 64 5633 41Q5606 18 5579 4Q5552 -10 5532 -10Q5507 -10 5492 12Q5478 34 5478 70Q5478 84 5480 98Q5483 113 5491 140Q5499 167 5514 212Q5530 258 5557 333Q5566 359 5572 377Q5578 395 5581 408Q5585 422 5586 432Q5588 442 5588 451Q5588 488 5561 488ZM6576 713L6596 755L6626 755L6584 558L6550 558Q6547 649 6517 689Q6487 729 6423 729Q6392 729 6366 720Q6340 712 6321 696Q6303 680 6292 658Q6282 637 6282 612Q6282 576 6302 548Q6322 520 6352 495Q6383 471 6418 446Q6454 421 6484 391Q6515 361 6535 323Q6555 285 6555 234Q6555 183 6535 138Q6515 94 6480 61Q6446 28 6400 9Q6354 -10 6301 -10Q6192 -10 6110 76L6089 0L6054 0L6096 254L6129 254Q6136 151 6180 97Q6224 43 6302 43Q6338 43 6368 53Q6398 64 6419 82Q6441 101 6453 126Q6466 152 6466 182Q6466 224 6445 256Q6424 288 6393 316Q6362 344 6325 370Q6288 396 6257 425Q6226 455 6205 490Q6184 526 6184 572Q6184 615 6202 653Q6221 691 6253 719Q6285 747 6328 763Q6371 780 6420 780Q6467 780 6504 764Q6541 748 6576 713ZM6980 447L6871 447L6788 172Q6771 118 6770 90Q6770 81 6774 74Q6779 67 6790 67Q6808 67 6828 80Q6848 94 6866 112Q6885 131 6899 150Q6914 170 6921 181L6950 164Q6933 130 6907 98Q6881 67 6852 43Q6823 19 6793 4Q6764 -10 6740 -10Q6705 -10 6689 5Q6674 20 6674 55Q6674 75 6681 109Q6688 143 6705 202L6779 447L6693 447L6706 493L6793 493L6845 665L6937 665L6885 493L6994 493L6980 447ZM7188 -10Q7154 -10 7124 3Q7095 17 7073 43Q7051 69 7038 106Q7025 144 7025 191Q7025 256 7049 319Q7074 382 7114 431Q7154 480 7205 510Q7257 540 7312 540Q7348 540 7378 526Q7409 513 7430 487Q7452 462 7464 426Q7477 391 7477 348Q7477 285 7452 221Q7427 157 7386 106Q7346 55 7294 22Q7242 -10 7188 -10ZM7194 40Q7228 40 7261 75Q7295 110 7321 163Q7348 217 7364 280Q7381 343 7381 400Q7381 453 7362 473Q7344 493 7312 493Q7290 493 7267 477Q7245 462 7225 435Q7205 408 7187 373Q7170 338 7157 299Q7144 260 7137 219Q7130 179 7130 142Q7130 86 7148 63Q7166 40 7194 40ZM7571 378L7545 391Q7556 416 7578 442Q7601 469 7627 490Q7654 512 7681 526Q7708 540 7728 540Q7752 540 7763 522Q7774 504 7774 464Q7774 448 7772 433Q7771 418 7767 398L7770 395Q7782 424 7804 452Q7826 480 7851 501Q7877 523 7903 536Q7930 550 7953 550Q7982 550 8001 531Q8021 513 8021 486Q8021 460 8004 443Q7988 426 7962 426Q7946 426 7936 432Q7927 438 7920 444Q7913 451 7907 457Q7901 463 7892 463Q7873 463 7848 437Q7823 412 7796 368Q7769 324 7742 265Q7716 206 7694 138L7649 0L7556 0L7621 207Q7640 267 7652 306Q7665 346 7672 372Q7679 399 7681 414Q7684 429 7684 440Q7684 462 7669 462Q7659 462 7644 454Q7630 446 7616 434Q7602 422 7589 407Q7577 392 7571 378ZM8326 154L8358 133Q8271 -10 8144 -10Q8075 -10 8038 32Q8001 75 8001 153Q8001 222 8029 291Q8058 360 8104 415Q8150 471 8207 505Q8264 540 8321 540Q8369 540 8399 515Q8430 491 8430 453Q8430 418 8404 381Q8378 344 8333 311Q8289 278 8229 251Q8170 224 8103 209Q8101 195 8100 181Q8099 168 8099 154Q8099 45 8176 45Q8213 45 8252 74Q8292 103 8326 154ZM8301 493Q8275 493 8247 473Q8219 453 8193 419Q8168 386 8147 343Q8126 300 8113 254Q8161 267 8202 288Q8243 309 8272 335Q8302 362 8319 391Q8336 421 8336 451Q8336 493 8301 493Z" fill="#343333" style=""></path></g></g></g></svg>