<svg version="1.1" xmlns="http://www.w3.org/2000/svg" viewBox="0 0 250 250"><desc>Created with Snap</desc><defs></defs><g transform="matrix(0.0267,0,0,0.0267,4.5251,134.4395)"><g transform="matrix(22.4384,0,0,22.4384,6912.7205,-1475.9178)"><title>Business Transformation</title><desc>Created with Sketch.</desc><g stroke="none" stroke-width="1" fill="none" fill-rule="evenodd"><path d="M50.5,86.5 C37.5213084,86.5 27,75.9786916 27,63 C27,50.0213084 37.5213084,39.5 50.5,39.5 C63.4786916,39.5 74,50.0213084 74,63 C74,75.9786916 63.4786916,86.5 50.5,86.5 Z M50.5,83.5 C61.8218374,83.5 71,74.3218374 71,63 C71,51.6781626 61.8218374,42.5 50.5,42.5 C39.1781626,42.5 30,51.6781626 30,63 C30,74.3218374 39.1781626,83.5 50.5,83.5 Z" fill="#000000" fill-rule="nonzero" style=""></path><path d="M36,60.5 C23.0213084,60.5 12.5,49.9786916 12.5,37 C12.5,24.0213084 23.0213084,13.5 36,13.5 C48.9786916,13.5 59.5,24.0213084 59.5,37 C59.5,49.9786916 48.9786916,60.5 36,60.5 Z M36,57.5 C47.3218374,57.5 56.5,48.3218374 56.5,37 C56.5,25.6781626 47.3218374,16.5 36,16.5 C24.6781626,16.5 15.5,25.6781626 15.5,37 C15.5,48.3218374 24.6781626,57.5 36,57.5 Z" fill="#000000" fill-rule="nonzero" style=""></path><path d="M65,60.5 C52.0213084,60.5 41.5,49.9786916 41.5,37 C41.5,24.0213084 52.0213084,13.5 65,13.5 C77.9786916,13.5 88.5,24.0213084 88.5,37 C88.5,49.9786916 77.9786916,60.5 65,60.5 Z M65,57.5 C76.3218374,57.5 85.5,48.3218374 85.5,37 C85.5,25.6781626 76.3218374,16.5 65,16.5 C53.6781626,16.5 44.5,25.6781626 44.5,37 C44.5,48.3218374 53.6781626,57.5 65,57.5 Z" fill="#000000" fill-rule="nonzero" style=""></path><path d="M43.633642,42.2635442 C45.9366803,41.4453769 48.4163285,41 51,41 C52.8985822,41 54.7409929,41.2404982 56.4984297,41.6926921 C55.5309444,46.1456552 53.2151368,50.0956232 50,53.0935925 C46.9229312,50.2243653 44.6696101,46.4831475 43.633642,42.2635442 Z" fill="#000000" style=""></path><polygon fill="#000000" fill-rule="nonzero" points="43.9601382 44.5514749 42.4485251 41.9601382 57.0398618 33.4485251 58.5514749 36.0398618" style=""></polygon><polygon fill="#000000" fill-rule="nonzero" points="43.9601382 38.5514749 42.4485251 35.9601382 55.312304 28.4562672 56.8239171 31.0476039" style=""></polygon><polygon fill="#000000" fill-rule="nonzero" points="44.9601382 31.5514749 43.4485251 28.9601382 53.7209673 22.9678802 55.2325804 25.5592169" style=""></polygon><polygon fill="#000000" fill-rule="nonzero" points="30.3786797 53.5 32.5 51.3786797 39.2071065 58.0857862 37.0857862 60.2071065" style=""></polygon><polygon fill="#000000" fill-rule="nonzero" points="33.3786797 49.5 35.5 47.3786797 44.3284269 56.2071065 42.2071065 58.3284269" style=""></polygon><polygon fill="#000000" fill-rule="nonzero" points="37.3786797 46.5 39.5 44.3786797 49.0355336 53.9142133 46.9142133 56.0355336" style=""></polygon><polygon fill="#000000" fill-rule="nonzero" transform="translate(66.207107, 55.792893) scale(-1, 1) translate(-66.207107, -55.792893) " points="61.7928935 53.5 63.9142138 51.3786797 70.6213203 58.0857862 68.5 60.2071065" style=""></polygon><polygon fill="#000000" fill-rule="nonzero" transform="translate(62.146447, 52.853553) scale(-1, 1) translate(-62.146447, -52.853553) " points="56.6715731 49.5 58.7928935 47.3786797 67.6213203 56.2071065 65.5 58.3284269" style=""></polygon><polygon fill="#000000" fill-rule="nonzero" transform="translate(57.792893, 50.207107) scale(-1, 1) translate(-57.792893, -50.207107) " points="51.9644664 46.5 54.0857867 44.3786797 63.6213203 53.9142133 61.5 56.0355336" style=""></polygon></g><defs></defs></g><g><g transform="matrix(0.5,0,0,-0.5,0,0)"><path d="M986 1431Q1180 1431 1372 1355L1320 1214Q1126 1281 981 1281Q861 1281 758 1233Q656 1186 588 1106Q521 1027 483 924Q445 822 445 710Q445 594 485 489Q526 385 599 306Q672 228 780 182Q889 136 1018 136Q1172 136 1339 196L1391 70Q1182 -20 975 -20Q847 -20 735 17Q623 54 539 120Q456 187 396 278Q336 369 305 478Q275 588 275 709Q275 914 360 1077Q446 1240 609 1335Q772 1431 986 1431ZM1741 0L1741 1421L1911 1421L1911 149L2549 149L2549 0L1741 0ZM3468 1436Q3609 1436 3731 1386Q3854 1337 3943 1247Q4033 1157 4084 1022Q4135 888 4135 727Q4135 509 4048 339Q3962 170 3808 77Q3655 -15 3461 -15Q3333 -15 3216 30Q3099 76 3005 163Q2911 250 2855 390Q2799 531 2799 707Q2799 872 2850 1009Q2901 1146 2990 1239Q3079 1333 3202 1384Q3325 1436 3468 1436ZM3459 1287Q3368 1287 3284 1253Q3200 1219 3129 1153Q3059 1088 3016 977Q2974 867 2974 728Q2974 595 3013 482Q3052 370 3119 294Q3186 218 3277 176Q3369 134 3474 134Q3545 134 3613 155Q3682 176 3745 221Q3808 267 3855 333Q3903 399 3931 496Q3960 593 3960 709Q3960 827 3930 925Q3900 1023 3850 1089Q3801 1155 3735 1200Q3670 1246 3600 1266Q3531 1287 3459 1287ZM4905 0L4410 1421L4612 1421L5018 180L5424 1421L5611 1421L5116 0L4905 0ZM6794 0L5961 0L5961 1421L6794 1421L6794 1271L6131 1271L6131 807L6739 807L6739 657L6131 657L6131 150L6794 150L6794 0ZM7775 1434Q7939 1434 8128 1377L8073 1222Q7893 1274 7761 1274Q7613 1274 7510 1211Q7408 1149 7408 1050Q7408 995 7441 952Q7474 909 7528 882Q7582 855 7651 828Q7720 802 7791 780Q7863 758 7932 724Q8001 690 8055 649Q8109 609 8142 544Q8175 479 8175 397Q8175 340 8157 283Q8139 227 8097 171Q8055 116 7993 74Q7931 32 7836 6Q7742 -20 7626 -20Q7510 -20 7412 4Q7315 28 7194 76L7252 241Q7502 148 7647 148Q7799 148 7894 209Q7990 270 7990 372Q7990 440 7947 489Q7905 539 7837 569Q7770 600 7688 626Q7606 653 7524 683Q7443 714 7375 754Q7308 794 7265 862Q7223 930 7223 1022Q7223 1104 7262 1179Q7302 1254 7372 1310Q7442 1367 7547 1400Q7652 1434 7775 1434ZM8400 1271L8400 1421L9520 1421L9520 1271L9045 1271L9045 0L8875 0L8875 1271L8400 1271ZM10409 1436Q10550 1436 10672 1386Q10795 1337 10884 1247Q10974 1157 11025 1022Q11076 888 11076 727Q11076 509 10989 339Q10903 170 10749 77Q10596 -15 10402 -15Q10274 -15 10157 30Q10040 76 9946 163Q9852 250 9796 390Q9740 531 9740 707Q9740 872 9791 1009Q9842 1146 9931 1239Q10020 1333 10143 1384Q10266 1436 10409 1436ZM10400 1287Q10309 1287 10225 1253Q10141 1219 10070 1153Q10000 1088 9957 977Q9915 867 9915 728Q9915 595 9954 482Q9993 370 10060 294Q10127 218 10218 176Q10310 134 10415 134Q10486 134 10554 155Q10623 176 10686 221Q10749 267 10796 333Q10844 399 10872 496Q10901 593 10901 709Q10901 827 10871 925Q10841 1023 10791 1089Q10742 1155 10676 1200Q10611 1246 10541 1266Q10472 1287 10400 1287ZM12439 1031Q12439 960 12422 896Q12405 832 12369 774Q12333 716 12269 673Q12206 631 12121 611L12522 0L12332 0L11947 592L11672 592L11672 0L11501 0L11501 1421L12023 1421Q12059 1421 12088 1419Q12117 1417 12162 1408Q12208 1400 12243 1385Q12278 1371 12316 1341Q12355 1312 12380 1272Q12406 1232 12422 1170Q12439 1108 12439 1031ZM11672 1272L11672 742L11917 742Q11968 742 12007 745Q12046 749 12098 764Q12151 780 12185 807Q12220 835 12244 887Q12269 940 12269 1012Q12269 1063 12256 1104Q12243 1145 12223 1171Q12203 1198 12174 1217Q12145 1237 12118 1247Q12091 1257 12058 1263Q12025 1269 12003 1270Q11982 1272 11958 1272L11672 1272ZM13772 0L12939 0L12939 1421L13772 1421L13772 1271L13109 1271L13109 807L13717 807L13717 657L13109 657L13109 150L13772 150L13772 0Z" fill="#000000" style=""></path></g></g></g></svg>