<svg version="1.1" xmlns="http://www.w3.org/2000/svg" viewBox="0 0 250 250"><desc>Created with Snap</desc><defs></defs><g transform="matrix(0.0285,0,0,0.0285,8.4375,122.2556)"><rect x="-295.93652267456054" y="-1036.2880126953125" width="8768.512677001952" height="2265.088067626953" fill="#fe938c" style=""></rect><g transform="matrix(51.584,0,0,51.584,6514.6881,-729.088)"><g display="none"><rect x="-69.333" y="-18.667" display="inline" fill="#292929" width="473.333" height="236" style=""></rect></g><g display="none"><g display="inline"><g><polygon fill="#292929" points="32,31.952 0,31.952 0,0.048    " style=""></polygon></g><g><polygon fill="#292929" points="23.347,23.325 8.653,23.325 8.653,8.675    " style=""></polygon></g></g><g display="inline"><g><polygon fill="#292929" points="0,0.048 32,0.048 32,31.952    " style=""></polygon></g><g><polygon fill="#292929" points="8.653,8.675 23.347,8.675 23.347,23.325    " style=""></polygon></g></g></g><g display="none"><g display="inline"><rect x="8.675" y="8.675" fill="#292929" stroke="#292929" stroke-miterlimit="10" width="14.65" height="14.65" style=""></rect><rect x="0.5" y="0.326" fill="#292929" stroke="#292929" stroke-miterlimit="10" width="31" height="31.348" style=""></rect><line fill="#292929" stroke="#292929" stroke-miterlimit="10" x1="0.413" y1="0.413" x2="31.587" y2="31.587" style=""></line></g></g><g display="none"><rect x="0.5" y="0.326" display="inline" fill="#292929" stroke="#292929" stroke-miterlimit="10" width="31" height="31.348" style=""></rect><rect x="8.675" y="8.675" display="inline" fill="#292929" stroke="#292929" stroke-miterlimit="10" width="14.65" height="14.65" style=""></rect><line display="inline" fill="#292929" stroke="#292929" stroke-miterlimit="10" x1="0.413" y1="0.413" x2="31.587" y2="31.587" style=""></line></g><g><g><polygon points="9.382,8.675 23.325,8.675 23.325,22.618 32,31.293 32,0 0.707,0   " fill="#292929" style=""></polygon><polygon points="22.618,23.325 8.675,23.325 8.675,9.382 0,0.707 0,32 31.293,32   " fill="#292929" style=""></polygon></g></g><desc>Created with Snap</desc><defs></defs></g><g><g transform="matrix(1.024,0,0,-1.024,0,0)"><path d="M147 351Q147 288 163 236Q180 185 209 148Q239 111 280 91Q321 71 370 71Q419 71 455 82Q491 94 525 114L554 35Q517 15 469 1Q422 -12 359 -12Q290 -12 233 13Q177 38 136 84Q95 131 72 197Q50 264 50 347Q50 427 72 494Q95 561 137 609Q179 658 238 685Q298 712 371 712Q422 712 462 702Q503 693 539 676L510 596Q479 611 446 620Q414 629 370 629Q322 629 281 610Q240 592 210 556Q180 520 163 468Q147 417 147 351ZM1100 85L1100 0L684 0L684 700L779 700L779 85L1100 85ZM1155 351Q1155 428 1177 494Q1200 560 1242 608Q1285 657 1346 684Q1407 712 1485 712Q1562 712 1623 683Q1685 655 1727 606Q1770 557 1793 491Q1816 426 1816 351Q1816 276 1793 210Q1771 144 1728 94Q1685 45 1624 16Q1563 -12 1485 -12Q1407 -12 1346 16Q1285 45 1242 94Q1200 144 1177 210Q1155 276 1155 351ZM1252 351Q1252 297 1267 246Q1283 195 1313 156Q1343 117 1386 93Q1430 70 1485 70Q1543 70 1586 91Q1630 113 1659 150Q1689 188 1704 239Q1719 291 1719 351Q1719 405 1703 455Q1687 505 1657 544Q1627 583 1583 606Q1540 630 1485 630Q1430 630 1386 608Q1343 587 1313 549Q1283 512 1267 461Q1252 410 1252 351ZM2133 0L1876 675L1969 711L2189 104L2410 708L2496 675L2240 0L2133 0ZM2596 0L2596 700L3016 700L3016 618L2691 618L2691 405L2971 405L2971 325L2691 325L2691 82L3016 82L3016 0L2596 0ZM3091 59L3139 139Q3175 109 3220 90Q3265 71 3325 71Q3397 71 3439 101Q3481 131 3481 182Q3481 203 3475 221Q3469 239 3451 255Q3434 272 3402 288Q3371 305 3321 324Q3267 345 3229 365Q3192 386 3169 410Q3146 435 3136 464Q3126 494 3126 532Q3126 569 3141 602Q3157 635 3187 659Q3218 684 3262 698Q3307 712 3364 712Q3426 712 3475 699Q3524 687 3572 664L3537 583Q3503 603 3457 616Q3412 630 3362 630Q3296 630 3258 604Q3220 579 3220 537Q3220 517 3225 501Q3231 486 3247 471Q3264 457 3293 442Q3323 427 3372 409Q3430 387 3470 364Q3510 341 3534 315Q3558 289 3568 259Q3579 229 3579 193Q3579 144 3560 106Q3541 68 3507 41Q3474 15 3427 1Q3380 -12 3325 -12Q3252 -12 3192 7Q3132 27 3091 59ZM3639 616L3639 700L4164 700L4164 616L3949 616L3949 0L3854 0L3854 616L3639 616ZM4224 351Q4224 428 4246 494Q4269 560 4311 608Q4354 657 4415 684Q4476 712 4554 712Q4631 712 4692 683Q4754 655 4796 606Q4839 557 4862 491Q4885 426 4885 351Q4885 276 4862 210Q4840 144 4797 94Q4754 45 4693 16Q4632 -12 4554 -12Q4476 -12 4415 16Q4354 45 4311 94Q4269 144 4246 210Q4224 276 4224 351ZM4321 351Q4321 297 4336 246Q4352 195 4382 156Q4412 117 4455 93Q4499 70 4554 70Q4612 70 4655 91Q4699 113 4728 150Q4758 188 4773 239Q4788 291 4788 351Q4788 405 4772 455Q4756 505 4726 544Q4696 583 4652 606Q4609 630 4554 630Q4499 630 4455 608Q4412 587 4382 549Q4352 512 4336 461Q4321 410 4321 351ZM5522 30L5433 -12L5346 178Q5313 249 5263 279Q5213 309 5135 309L5120 309L5120 0L5025 0L5025 698Q5079 703 5126 705Q5174 708 5230 708Q5294 708 5342 694Q5390 681 5422 656Q5454 631 5470 597Q5487 563 5487 522Q5487 449 5443 404Q5400 360 5318 338Q5338 329 5355 317Q5372 306 5387 289Q5402 273 5416 250Q5431 227 5446 194L5522 30ZM5230 628Q5196 628 5169 627Q5142 626 5120 624L5120 389L5230 389Q5302 389 5347 421Q5392 453 5392 513Q5392 563 5350 595Q5308 628 5230 628ZM5642 0L5642 700L6062 700L6062 618L5737 618L5737 405L6017 405L6017 325L5737 325L5737 82L6062 82L6062 0L5642 0Z" fill="#292929" style=""></path></g></g><g transform="matrix(0.75,0,0,0.75,-27.9045,913.9201)"><g transform="matrix(1.024,0,0,-1.024,0,0)"><path d="M51 630L51 723L531 723L531 630L337 630L337 0L240 0L240 630L51 630ZM755 0L662 0L662 774L753 774L753 318L751 335Q772 376 815 403Q859 430 918 430Q977 430 1014 395Q1052 361 1053 306L1053 0L959 0L959 273Q958 307 939 328Q921 350 882 350Q846 350 817 329Q788 309 771 274Q755 239 755 194L755 0ZM1407 -10Q1336 -10 1285 18Q1234 47 1206 96Q1179 146 1179 210Q1179 271 1210 321Q1241 371 1293 401Q1345 431 1409 431Q1491 431 1545 383Q1599 335 1618 251L1277 131L1255 186L1535 288L1515 275Q1503 308 1475 332Q1447 357 1402 357Q1364 357 1334 338Q1304 320 1287 288Q1270 256 1270 215Q1270 172 1288 139Q1306 107 1337 88Q1369 70 1409 70Q1436 70 1461 80Q1487 90 1509 106L1552 37Q1521 16 1482 3Q1444 -10 1407 -10ZM2074 0L2074 723L2503 723L2503 630L2171 630L2171 399L2462 399L2462 307L2171 307L2171 0L2074 0ZM2812 -10Q2754 -10 2706 15Q2659 40 2631 88Q2604 137 2604 207Q2604 276 2633 326Q2662 377 2710 404Q2759 431 2817 431Q2875 431 2915 404Q2955 378 2976 342L2970 326L2979 414L3065 414L3065 0L2972 0L2972 108L2982 84Q2978 74 2964 58Q2951 43 2928 27Q2906 11 2877 0Q2848 -10 2812 -10ZM2837 67Q2872 67 2900 80Q2928 93 2946 116Q2965 140 2972 173L2972 254Q2964 284 2944 306Q2924 329 2896 341Q2868 354 2834 354Q2797 354 2766 336Q2735 318 2716 286Q2698 254 2698 211Q2698 171 2717 138Q2736 105 2768 86Q2800 67 2837 67ZM3342 -8Q3298 -8 3256 7Q3215 23 3188 54L3227 108Q3253 83 3280 70Q3308 58 3335 58Q3355 58 3372 63Q3389 68 3399 79Q3410 91 3410 111Q3410 133 3395 146Q3381 159 3358 167Q3336 175 3311 182Q3260 199 3233 229Q3206 259 3206 302Q3206 335 3222 363Q3239 392 3271 410Q3304 428 3352 428Q3395 428 3429 417Q3463 407 3493 383L3456 325Q3438 344 3413 353Q3388 362 3368 363Q3351 364 3335 358Q3320 352 3310 341Q3300 330 3300 315Q3300 294 3314 281Q3328 268 3350 260Q3373 253 3395 245Q3426 236 3450 221Q3474 206 3488 184Q3503 162 3503 129Q3503 92 3485 60Q3468 29 3432 10Q3397 -8 3342 -8ZM3726 0L3633 0L3633 774L3724 774L3724 318L3722 335Q3743 376 3786 403Q3830 430 3889 430Q3948 430 3985 395Q4023 361 4024 306L4024 0L3930 0L3930 273Q3929 307 3910 328Q3892 350 3853 350Q3817 350 3788 329Q3759 309 3742 274Q3726 239 3726 194L3726 0ZM4186 0L4186 414L4279 414L4279 0L4186 0ZM4179 564Q4179 586 4196 601Q4214 616 4235 616Q4256 616 4272 601Q4289 586 4289 564Q4289 541 4272 526Q4256 512 4235 512Q4214 512 4196 527Q4179 542 4179 564ZM4404 211Q4404 273 4433 323Q4463 373 4515 402Q4567 431 4633 431Q4701 431 4752 402Q4803 373 4831 323Q4859 273 4859 211Q4859 149 4831 98Q4803 48 4751 19Q4700 -10 4632 -10Q4566 -10 4514 17Q4463 45 4433 94Q4404 144 4404 211ZM4497 210Q4497 170 4515 137Q4533 105 4563 86Q4594 67 4631 67Q4670 67 4700 86Q4731 105 4748 137Q4765 170 4765 210Q4765 250 4748 282Q4731 315 4700 334Q4670 354 4631 354Q4593 354 4562 334Q4532 314 4514 281Q4497 249 4497 210ZM4985 414L5068 414L5076 313L5072 329Q5092 375 5137 402Q5182 430 5241 430Q5300 430 5337 395Q5375 361 5376 306L5376 0L5282 0L5282 273Q5281 307 5262 328Q5244 350 5205 350Q5169 350 5140 330Q5111 310 5094 275Q5078 240 5078 194L5078 0L4985 0L4985 414ZM6288 668L6251 594Q6214 613 6170 627Q6126 641 6084 641Q6026 641 5991 614Q5957 587 5957 542Q5957 508 5979 484Q6001 461 6037 444Q6073 427 6112 412Q6146 399 6179 383Q6212 367 6238 343Q6265 319 6280 284Q6296 249 6296 197Q6296 140 6267 93Q6239 46 6186 19Q6133 -8 6060 -8Q6012 -8 5968 3Q5925 14 5888 31Q5851 49 5822 68L5865 144Q5889 127 5920 111Q5951 96 5985 86Q6019 77 6051 77Q6085 77 6118 89Q6152 102 6174 128Q6196 154 6196 197Q6196 234 6176 258Q6157 283 6125 300Q6093 318 6057 332Q6023 345 5988 360Q5953 376 5923 398Q5893 421 5875 454Q5857 487 5857 534Q5857 591 5884 633Q5912 676 5960 700Q6008 725 6070 727Q6140 727 6193 710Q6247 693 6288 668ZM6476 412L6476 596L6569 596L6569 412L6683 412L6683 339L6569 339L6569 0L6476 0L6476 339L6400 339L6400 412L6476 412ZM6759 211Q6759 273 6788 323Q6818 373 6870 402Q6922 431 6988 431Q7056 431 7107 402Q7158 373 7186 323Q7214 273 7214 211Q7214 149 7186 98Q7158 48 7106 19Q7055 -10 6987 -10Q6921 -10 6869 17Q6818 45 6788 94Q6759 144 6759 211ZM6852 210Q6852 170 6870 137Q6888 105 6918 86Q6949 67 6986 67Q7025 67 7055 86Q7086 105 7103 137Q7120 170 7120 210Q7120 250 7103 282Q7086 315 7055 334Q7025 354 6986 354Q6948 354 6917 334Q6887 314 6869 281Q6852 249 6852 210ZM7340 414L7423 414L7432 294L7427 310Q7443 348 7473 374Q7504 401 7537 415Q7571 430 7596 430L7591 338Q7544 341 7508 320Q7473 299 7452 264Q7432 229 7432 189L7432 0L7340 0L7340 414ZM7908 -10Q7837 -10 7786 18Q7735 47 7707 96Q7680 146 7680 210Q7680 271 7711 321Q7742 371 7794 401Q7846 431 7910 431Q7992 431 8046 383Q8100 335 8119 251L7778 131L7756 186L8036 288L8016 275Q8004 308 7976 332Q7948 357 7903 357Q7865 357 7835 338Q7805 320 7788 288Q7771 256 7771 215Q7771 172 7789 139Q7807 107 7838 88Q7870 70 7910 70Q7937 70 7962 80Q7988 90 8010 106L8053 37Q8022 16 7983 3Q7945 -10 7908 -10Z" fill="#292929" style=""></path></g></g></g></svg>