<svg version="1.1" xmlns="http://www.w3.org/2000/svg" viewBox="0 0 250 250"><desc>Created with Snap</desc><defs></defs><g transform="matrix(0.0267,0,0,0.0267,49.9187,140.2219)"><g transform="matrix(22.3909,0,0,22.3909,-1747.2626,-5089.3187)">
<g id="gSkui0axqtcu">
	<path d="M317.9281,155.65147c-30.98956,7.31404-46.23932-11.77283-62.95764-64.39297
		c-22.81844-71.81998-97.04111-20.6673-137.30415,34.09873c-36.01472,48.98745-100.43337,28.2066-108.71796,96.60006
		C1.05756,287.09979,51.2933,341.39026,114.88862,347.1629c44.93644,4.07898,74.15717-17.45844,113.5048-32.92603
		c50.53844-19.86673,37.44051-0.93326,86.27327,8.58145c60.94122,11.87393,88.18268-44.41559,84.49582-82.9597
		S385.17041,139.7812,317.9281,155.65147z" fill="#195190" style=""></path>
</g>


<desc>Created with Snap</desc><defs></defs></g><g><g transform="matrix(1.024,0,0,-1.024,0,0)"><path d="M355 67Q405 67 437 75Q470 83 502 98L523 24Q488 7 446 -1Q405 -9 345 -9Q283 -9 228 12Q173 33 132 74Q92 115 68 175Q45 236 45 315Q45 392 68 452Q91 513 131 554Q172 596 228 617Q284 639 350 639Q412 639 452 629Q492 619 526 602L504 530Q485 538 468 544Q452 551 435 555Q419 559 401 561Q384 563 362 563Q318 563 278 549Q239 536 209 506Q180 476 162 428Q145 381 145 314Q145 246 162 199Q179 152 207 123Q236 94 274 80Q312 67 355 67ZM639 0L639 630L731 630L731 78L1000 78L1000 0L639 0ZM1360 639Q1424 639 1478 618Q1532 598 1571 557Q1611 517 1633 456Q1655 396 1655 315Q1655 236 1632 175Q1609 115 1569 74Q1529 33 1474 12Q1420 -9 1356 -9Q1292 -9 1238 11Q1184 32 1144 72Q1105 113 1083 173Q1061 234 1061 315Q1061 394 1084 454Q1107 515 1147 556Q1187 597 1241 618Q1296 639 1360 639ZM1161 315Q1161 251 1176 204Q1192 157 1219 126Q1246 95 1282 80Q1319 65 1360 65Q1401 65 1436 80Q1472 95 1498 126Q1525 157 1540 204Q1555 251 1555 315Q1555 381 1539 428Q1524 475 1497 505Q1470 536 1433 550Q1397 565 1356 565Q1315 565 1279 550Q1243 535 1217 504Q1191 473 1176 426Q1161 379 1161 315ZM1698 630L1795 630L1926 274Q1940 237 1956 192Q1973 148 1987 110L1989 110L2049 274L2182 630L2278 630L2030 0L1941 0L1698 630ZM2355 0L2355 630L2735 630L2735 554L2447 554L2447 365L2709 365L2709 290L2447 290L2447 76L2738 76L2738 0L2355 0ZM3033 639Q3079 639 3122 631Q3165 624 3207 604L3185 528Q3142 548 3107 556Q3073 565 3037 565Q2980 565 2947 540Q2914 515 2914 470Q2914 432 2938 409Q2963 386 3019 369L3082 349Q3168 322 3203 275Q3239 229 3239 171Q3239 130 3222 96Q3206 63 3176 39Q3147 16 3107 3Q3067 -9 3019 -9Q2971 -9 2921 -1Q2872 8 2823 31L2845 106Q2888 85 2929 75Q2970 65 3015 65Q3069 65 3107 90Q3145 115 3145 164Q3145 182 3139 197Q3134 213 3120 227Q3107 241 3084 253Q3061 265 3026 276L2963 296Q2894 318 2857 356Q2820 394 2820 459Q2820 542 2874 590Q2929 639 3033 639ZM3291 630L3773 630L3773 552L3576 552L3576 0L3484 0L3484 552L3291 552L3291 630ZM4127 639Q4191 639 4245 618Q4299 598 4338 557Q4378 517 4400 456Q4422 396 4422 315Q4422 236 4399 175Q4376 115 4336 74Q4296 33 4241 12Q4187 -9 4123 -9Q4059 -9 4005 11Q3951 32 3911 72Q3872 113 3850 173Q3828 234 3828 315Q3828 394 3851 454Q3874 515 3914 556Q3954 597 4008 618Q4063 639 4127 639ZM3928 315Q3928 251 3943 204Q3959 157 3986 126Q4013 95 4049 80Q4086 65 4127 65Q4168 65 4203 80Q4239 95 4265 126Q4292 157 4307 204Q4322 251 4322 315Q4322 381 4306 428Q4291 475 4264 505Q4237 536 4200 550Q4164 565 4123 565Q4082 565 4046 550Q4010 535 3984 504Q3958 473 3943 426Q3928 379 3928 315ZM4548 0L4548 630L4753 630Q4802 630 4839 616Q4877 602 4902 577Q4927 552 4940 517Q4953 483 4953 442Q4953 406 4942 377Q4931 348 4913 326Q4895 305 4871 289Q4848 274 4824 264L4990 0L4887 0L4738 247L4635 247L4635 0L4548 0ZM4635 556L4635 322L4711 322Q4742 322 4768 328Q4795 335 4814 348Q4834 362 4845 384Q4857 406 4857 437Q4857 498 4823 527Q4790 556 4726 556L4635 556ZM5085 0L5085 630L5465 630L5465 554L5177 554L5177 365L5439 365L5439 290L5177 290L5177 76L5468 76L5468 0L5085 0Z" fill="#e0e0e0" style=""></path></g></g><g transform="matrix(0.75,0,0,0.75,-280.4481,912.384)"><g transform="matrix(1.024,0,0,-1.024,0,0)"><path d="M16 693L549 693L549 609L331 609L331 0L234 0L234 609L16 609L16 693ZM738 0L645 0L645 760L738 776L738 510Q764 520 793 525Q823 531 852 531Q914 531 955 513Q996 496 1020 464Q1045 433 1055 389Q1065 345 1065 292L1065 0L972 0L972 272Q972 320 965 354Q959 388 944 409Q929 430 904 439Q879 449 842 449Q827 449 811 447Q795 445 780 442Q766 440 754 437Q743 434 738 432L738 0ZM1187 259Q1187 328 1207 379Q1227 431 1260 465Q1293 499 1336 516Q1379 533 1424 533Q1529 533 1585 467Q1641 402 1641 268Q1641 262 1641 252Q1641 243 1640 235L1284 235Q1290 154 1331 112Q1372 70 1459 70Q1508 70 1541 78Q1575 87 1592 95L1605 17Q1588 8 1545 -2Q1503 -12 1449 -12Q1381 -12 1331 8Q1282 29 1250 65Q1218 101 1202 150Q1187 200 1187 259ZM1286 310L1544 310Q1545 373 1512 413Q1480 454 1423 454Q1391 454 1366 441Q1342 429 1325 409Q1308 389 1298 363Q1289 337 1286 310ZM2109 0L2012 0L2012 693L2430 693L2430 610L2109 610L2109 401L2394 401L2394 319L2109 319L2109 0ZM2719 67Q2752 67 2777 68Q2803 70 2820 74L2820 229Q2810 234 2787 237Q2765 241 2733 241Q2712 241 2688 238Q2665 235 2645 225Q2626 216 2613 199Q2600 183 2600 156Q2600 106 2632 86Q2664 67 2719 67ZM2711 533Q2767 533 2805 518Q2844 504 2867 477Q2891 451 2901 414Q2911 378 2911 334L2911 9Q2899 7 2877 3Q2856 0 2829 -3Q2802 -6 2770 -9Q2739 -11 2708 -11Q2664 -11 2627 -2Q2590 7 2563 26Q2536 46 2521 78Q2506 110 2506 155Q2506 198 2523 229Q2541 260 2571 279Q2601 298 2641 307Q2681 316 2725 316Q2739 316 2754 314Q2769 313 2782 310Q2796 308 2806 306Q2816 304 2820 303L2820 329Q2820 352 2815 374Q2810 397 2797 414Q2784 432 2761 442Q2739 453 2703 453Q2657 453 2622 446Q2588 440 2571 433L2560 510Q2578 518 2620 525Q2662 533 2711 533ZM3186 67Q3243 67 3270 82Q3298 97 3298 130Q3298 164 3271 184Q3244 204 3182 229Q3152 241 3124 253Q3097 266 3077 283Q3057 300 3045 324Q3033 348 3033 383Q3033 452 3084 492Q3135 533 3223 533Q3245 533 3267 530Q3289 528 3308 524Q3327 521 3341 517Q3356 513 3364 510L3347 430Q3332 438 3300 446Q3268 455 3223 455Q3184 455 3155 439Q3126 424 3126 391Q3126 374 3132 361Q3139 348 3152 337Q3166 327 3186 318Q3206 309 3234 299Q3271 285 3300 271Q3329 258 3349 240Q3370 222 3381 196Q3392 171 3392 134Q3392 62 3338 25Q3285 -12 3186 -12Q3117 -12 3078 -1Q3039 11 3025 17L3042 97Q3058 91 3093 79Q3128 67 3186 67ZM3604 0L3511 0L3511 760L3604 776L3604 510Q3630 520 3659 525Q3689 531 3718 531Q3780 531 3821 513Q3862 496 3886 464Q3911 433 3921 389Q3931 345 3931 292L3931 0L3838 0L3838 272Q3838 320 3831 354Q3825 388 3810 409Q3795 430 3770 439Q3745 449 3708 449Q3693 449 3677 447Q3661 445 3646 442Q3632 440 3620 437Q3609 434 3604 432L3604 0ZM4175 520L4175 0L4082 0L4082 520L4175 520ZM4128 614Q4103 614 4085 630Q4068 647 4068 675Q4068 703 4085 719Q4103 736 4128 736Q4153 736 4170 719Q4188 703 4188 675Q4188 647 4170 630Q4153 614 4128 614ZM4794 260Q4794 198 4776 148Q4758 98 4725 62Q4693 26 4648 6Q4603 -13 4550 -13Q4497 -13 4452 6Q4407 26 4374 62Q4342 98 4324 148Q4306 198 4306 260Q4306 321 4324 371Q4342 422 4374 458Q4407 494 4452 513Q4497 533 4550 533Q4603 533 4648 513Q4693 494 4725 458Q4758 422 4776 371Q4794 321 4794 260ZM4697 260Q4697 348 4657 399Q4618 451 4550 451Q4482 451 4442 399Q4403 348 4403 260Q4403 172 4442 120Q4482 69 4550 69Q4618 69 4657 120Q4697 172 4697 260ZM4925 0L4925 505Q4957 513 5010 522Q5063 531 5132 531Q5194 531 5235 513Q5276 496 5300 464Q5325 433 5335 389Q5345 345 5345 292L5345 0L5252 0L5252 272Q5252 320 5245 354Q5239 388 5224 409Q5209 430 5184 439Q5159 449 5122 449Q5107 449 5091 448Q5075 447 5060 445Q5046 444 5034 442Q5023 440 5018 439L5018 0L4925 0ZM5897 69Q6049 69 6049 173Q6049 205 6035 227Q6022 250 5999 266Q5976 283 5946 295Q5917 307 5884 319Q5846 332 5812 348Q5778 365 5753 387Q5728 410 5713 441Q5699 472 5699 516Q5699 607 5761 658Q5823 709 5932 709Q5995 709 6046 695Q6098 682 6122 666L6091 587Q6070 600 6028 612Q5987 625 5932 625Q5904 625 5880 619Q5856 613 5838 601Q5820 589 5809 570Q5799 552 5799 527Q5799 499 5810 480Q5821 461 5841 446Q5861 432 5887 420Q5914 408 5946 396Q5991 378 6028 360Q6066 342 6093 317Q6121 292 6136 257Q6151 223 6151 174Q6151 83 6084 34Q6018 -15 5897 -15Q5856 -15 5821 -10Q5787 -4 5760 3Q5733 11 5713 19Q5694 28 5683 34L5712 114Q5735 101 5782 85Q5829 69 5897 69ZM6349 681L6349 520L6546 520L6546 442L6349 442L6349 202Q6349 163 6355 137Q6361 112 6373 97Q6385 83 6403 77Q6421 71 6445 71Q6487 71 6512 80Q6538 90 6548 94L6566 17Q6552 10 6517 -1Q6482 -11 6437 -11Q6384 -11 6349 2Q6315 16 6294 43Q6273 70 6264 109Q6256 149 6256 201L6256 665L6349 681ZM7123 260Q7123 198 7105 148Q7087 98 7054 62Q7022 26 6977 6Q6932 -13 6879 -13Q6826 -13 6781 6Q6736 26 6703 62Q6671 98 6653 148Q6635 198 6635 260Q6635 321 6653 371Q6671 422 6703 458Q6736 494 6781 513Q6826 533 6879 533Q6932 533 6977 513Q7022 494 7054 458Q7087 422 7105 371Q7123 321 7123 260ZM7026 260Q7026 348 6986 399Q6947 451 6879 451Q6811 451 6771 399Q6732 348 6732 260Q6732 172 6771 120Q6811 69 6879 69Q6947 69 6986 120Q7026 172 7026 260ZM7446 531Q7458 531 7473 529Q7489 528 7504 525Q7519 523 7531 520Q7544 518 7550 516L7534 435Q7523 439 7497 444Q7472 450 7432 450Q7406 450 7380 444Q7355 439 7347 437L7347 0L7254 0L7254 498Q7287 510 7336 520Q7385 531 7446 531ZM7611 259Q7611 328 7631 379Q7651 431 7684 465Q7717 499 7760 516Q7803 533 7848 533Q7953 533 8009 467Q8065 402 8065 268Q8065 262 8065 252Q8065 243 8064 235L7708 235Q7714 154 7755 112Q7796 70 7883 70Q7932 70 7965 78Q7999 87 8016 95L8029 17Q8012 8 7969 -2Q7927 -12 7873 -12Q7805 -12 7755 8Q7706 29 7674 65Q7642 101 7626 150Q7611 200 7611 259ZM7710 310L7968 310Q7969 373 7936 413Q7904 454 7847 454Q7815 454 7790 441Q7766 429 7749 409Q7732 389 7722 363Q7713 337 7710 310Z" fill="#e0e0e0" style=""></path></g></g></g></svg>