<svg version="1.1" xmlns="http://www.w3.org/2000/svg" viewBox="0 0 250 250"><desc>Created with Snap</desc><defs></defs><g transform="matrix(0.0354,0,0,0.0354,13.7033,122.3035)"><g><g transform="matrix(0.5,0,0,-0.5,0,0)"><path d="M827 1331Q586 1331 446 1170Q307 1010 307 731Q307 444 441 287Q576 131 825 131Q978 131 1174 186L1174 37Q1022 -20 799 -20Q476 -20 300 176Q125 372 125 733Q125 959 209 1129Q294 1299 453 1391Q613 1483 829 1483Q1059 1483 1231 1399L1159 1253Q993 1331 827 1331ZM2308 0L1493 0L1493 1462L1663 1462L1663 154L2308 154L2308 0ZM3825 733Q3825 382 3647 181Q3470 -20 3154 -20Q2831 -20 2655 177Q2480 375 2480 735Q2480 1092 2656 1288Q2832 1485 3156 1485Q3471 1485 3648 1285Q3825 1085 3825 733ZM2660 733Q2660 436 2786 282Q2913 129 3154 129Q3397 129 3521 282Q3645 435 3645 733Q3645 1028 3521 1180Q3398 1333 3156 1333Q2913 1333 2786 1179Q2660 1026 2660 733ZM4652 522L4986 1462L5169 1462L4642 0L4474 0L3950 1462L4130 1462L4466 516Q4524 353 4558 199Q4594 361 4652 522ZM6185 152L6185 0L5370 0L5370 1462L6185 1462L6185 1311L5540 1311L5540 840L6146 840L6146 690L5540 690L5540 152L6185 152ZM7334 389Q7334 196 7194 88Q7054 -20 6814 -20Q6554 -20 6414 47L6414 211Q6504 173 6610 151Q6716 129 6820 129Q6990 129 7076 193Q7162 258 7162 373Q7162 449 7131 497Q7101 546 7029 587Q6958 628 6812 680Q6608 753 6520 853Q6433 953 6433 1114Q6433 1283 6560 1383Q6687 1483 6896 1483Q7114 1483 7297 1403L7244 1255Q7063 1331 6892 1331Q6757 1331 6681 1273Q6605 1215 6605 1112Q6605 1036 6633 987Q6661 939 6727 898Q6794 858 6931 809Q7161 727 7247 633Q7334 539 7334 389ZM8083 1311L8083 0L7913 0L7913 1311L7450 1311L7450 1462L8546 1462L8546 1311L8083 1311ZM10035 733Q10035 382 9857 181Q9680 -20 9364 -20Q9041 -20 8865 177Q8690 375 8690 735Q8690 1092 8866 1288Q9042 1485 9366 1485Q9681 1485 9858 1285Q10035 1085 10035 733ZM8870 733Q8870 436 8996 282Q9123 129 9364 129Q9607 129 9731 282Q9855 435 9855 733Q9855 1028 9731 1180Q9608 1333 9366 1333Q9123 1333 8996 1179Q8870 1026 8870 733ZM10836 608L10531 608L10531 0L10361 0L10361 1462L10762 1462Q11031 1462 11159 1359Q11288 1256 11288 1049Q11288 759 10994 657L11391 0L11190 0L10836 608ZM10531 1313L10531 754L10764 754Q10944 754 11028 825Q11112 897 11112 1040Q11112 1185 11026 1249Q10941 1313 10752 1313L10531 1313ZM12442 152L12442 0L11627 0L11627 1462L12442 1462L12442 1311L11797 1311L11797 840L12403 840L12403 690L11797 690L11797 152L12442 152Z" fill="#5f0f40" style=""></path></g></g><g transform="matrix(0.75,0,0,0.75,-87.306,885.52)"><g transform="matrix(1.024,0,0,-1.024,0,0)"><path d="M10 616L10 700L535 700L535 616L320 616L320 0L225 0L225 616L10 616ZM715 740L715 437Q743 478 785 505Q828 532 887 532Q975 532 1018 479Q1062 426 1062 339L1062 0L972 0L972 329Q972 386 946 419Q921 453 873 453Q850 453 827 444Q805 436 785 421Q765 406 747 386Q729 366 715 344L715 0L625 0L625 740L715 740ZM1638 223L1274 223Q1283 150 1325 109Q1367 68 1436 68Q1481 68 1517 77Q1553 87 1586 102L1607 25Q1571 8 1526 -2Q1481 -12 1425 -12Q1369 -12 1324 6Q1279 25 1247 59Q1216 94 1199 144Q1182 195 1182 260Q1182 318 1199 368Q1216 418 1247 454Q1278 491 1321 511Q1364 532 1417 532Q1473 532 1515 513Q1557 494 1585 461Q1613 428 1627 384Q1641 340 1641 291Q1641 256 1638 223ZM1415 454Q1356 454 1318 414Q1281 374 1273 296L1558 296Q1558 372 1520 413Q1482 454 1415 454ZM2071 0L2071 700L2486 700L2486 618L2166 618L2166 404L2433 404L2433 326L2166 326L2166 0L2071 0ZM2561 257Q2561 315 2579 365Q2597 416 2629 453Q2662 490 2707 511Q2753 532 2807 532Q2852 532 2888 516Q2925 501 2952 478L2952 520L3034 520L3034 126Q3034 88 3052 76Q3071 65 3093 65L3074 -5Q2978 -5 2958 73Q2946 57 2930 41Q2915 26 2895 14Q2875 2 2850 -5Q2825 -12 2795 -12Q2746 -12 2703 7Q2661 26 2629 61Q2598 96 2579 145Q2561 195 2561 257ZM2815 68Q2853 68 2887 86Q2921 104 2944 133L2944 412Q2917 431 2884 442Q2852 454 2816 454Q2780 454 2750 440Q2720 426 2698 400Q2677 375 2665 339Q2653 303 2653 260Q2653 218 2665 182Q2677 147 2699 121Q2721 96 2750 82Q2780 68 2815 68ZM3168 42L3206 117Q3232 94 3271 80Q3311 66 3356 66Q3412 66 3440 84Q3469 103 3469 132Q3469 147 3463 160Q3458 173 3443 185Q3429 197 3404 208Q3379 220 3339 234Q3265 259 3229 293Q3193 328 3193 389Q3193 419 3206 445Q3220 471 3245 490Q3271 510 3307 521Q3344 532 3391 532Q3442 532 3480 521Q3519 511 3550 495L3525 421Q3498 437 3463 447Q3429 457 3387 457Q3335 457 3308 436Q3281 415 3281 390Q3281 378 3285 368Q3290 358 3302 349Q3314 340 3334 331Q3354 322 3384 312Q3433 295 3467 277Q3501 260 3522 239Q3543 218 3552 193Q3561 169 3561 139Q3561 104 3546 76Q3531 48 3504 28Q3477 9 3438 -2Q3400 -12 3353 -12Q3293 -12 3246 3Q3199 18 3168 42ZM3771 740L3771 437Q3799 478 3841 505Q3884 532 3943 532Q4031 532 4074 479Q4118 426 4118 339L4118 0L4028 0L4028 329Q4028 386 4002 419Q3977 453 3929 453Q3906 453 3883 444Q3861 436 3841 421Q3821 406 3803 386Q3785 366 3771 344L3771 0L3681 0L3681 740L3771 740ZM4363 520L4363 0L4273 0L4273 520L4363 520ZM4318 609Q4292 609 4273 627Q4255 646 4255 672Q4255 701 4272 718Q4289 735 4318 735Q4344 735 4362 716Q4381 698 4381 672Q4381 643 4364 626Q4347 609 4318 609ZM4909 260Q4909 299 4896 334Q4884 369 4861 395Q4839 421 4808 436Q4778 452 4742 452Q4663 452 4619 400Q4575 348 4575 262Q4575 223 4587 187Q4600 152 4622 125Q4645 99 4675 83Q4706 68 4742 68Q4781 68 4812 82Q4843 96 4864 121Q4886 147 4897 182Q4909 217 4909 260ZM4483 260Q4483 323 4503 373Q4523 424 4557 459Q4592 494 4639 513Q4687 532 4742 532Q4796 532 4843 513Q4891 494 4926 459Q4961 424 4981 374Q5001 324 5001 262Q5001 200 4981 149Q4962 99 4927 63Q4892 27 4844 7Q4797 -12 4742 -12Q4686 -12 4638 8Q4591 28 4556 64Q4522 100 4502 150Q4483 200 4483 260ZM5208 520L5208 433Q5236 475 5279 503Q5323 532 5383 532Q5471 532 5514 479Q5558 426 5558 339L5558 0L5468 0L5468 329Q5468 386 5442 419Q5416 453 5368 453Q5345 453 5323 444Q5301 436 5280 421Q5260 406 5242 386Q5225 366 5211 344L5211 0L5121 0L5121 520L5208 520ZM5963 59L6011 139Q6047 109 6092 90Q6137 71 6197 71Q6269 71 6311 101Q6353 131 6353 182Q6353 203 6347 221Q6341 239 6323 255Q6306 272 6274 288Q6243 305 6193 324Q6139 345 6101 365Q6064 386 6041 410Q6018 435 6008 464Q5998 494 5998 532Q5998 569 6013 602Q6029 635 6059 659Q6090 684 6134 698Q6179 712 6236 712Q6298 712 6347 699Q6396 687 6444 664L6409 583Q6375 603 6329 616Q6284 630 6234 630Q6168 630 6130 604Q6092 579 6092 537Q6092 517 6097 501Q6103 486 6119 471Q6136 457 6165 442Q6195 427 6244 409Q6302 387 6342 364Q6382 341 6406 315Q6430 289 6440 259Q6451 229 6451 193Q6451 144 6432 106Q6413 68 6379 41Q6346 15 6299 1Q6252 -12 6197 -12Q6124 -12 6064 7Q6004 27 5963 59ZM6603 501L6622 665L6691 665L6691 501L6835 501L6835 423L6691 423L6691 172Q6691 143 6697 123Q6704 103 6715 91Q6726 79 6741 73Q6757 68 6774 68Q6799 68 6821 76Q6843 84 6863 95L6888 23Q6868 11 6834 -1Q6800 -12 6763 -12Q6688 -12 6644 37Q6601 86 6601 179L6601 423L6511 423L6511 501L6603 501ZM7364 260Q7364 299 7351 334Q7339 369 7316 395Q7294 421 7263 436Q7233 452 7197 452Q7118 452 7074 400Q7030 348 7030 262Q7030 223 7042 187Q7055 152 7077 125Q7100 99 7130 83Q7161 68 7197 68Q7236 68 7267 82Q7298 96 7319 121Q7341 147 7352 182Q7364 217 7364 260ZM6938 260Q6938 323 6958 373Q6978 424 7012 459Q7047 494 7094 513Q7142 532 7197 532Q7251 532 7298 513Q7346 494 7381 459Q7416 424 7436 374Q7456 324 7456 262Q7456 200 7436 149Q7417 99 7382 63Q7347 27 7299 7Q7252 -12 7197 -12Q7141 -12 7093 8Q7046 28 7011 64Q6977 100 6957 150Q6938 200 6938 260ZM7885 526L7858 433Q7839 441 7813 441Q7785 441 7758 429Q7732 417 7711 393Q7691 369 7678 331Q7666 294 7666 243L7666 0L7576 0L7576 520L7663 520L7663 407Q7672 431 7687 454Q7702 477 7722 494Q7743 511 7770 521Q7797 532 7830 532Q7845 532 7859 530Q7874 529 7885 526ZM8396 223L8032 223Q8041 150 8083 109Q8125 68 8194 68Q8239 68 8275 77Q8311 87 8344 102L8365 25Q8329 8 8284 -2Q8239 -12 8183 -12Q8127 -12 8082 6Q8037 25 8005 59Q7974 94 7957 144Q7940 195 7940 260Q7940 318 7957 368Q7974 418 8005 454Q8036 491 8079 511Q8122 532 8175 532Q8231 532 8273 513Q8315 494 8343 461Q8371 428 8385 384Q8399 340 8399 291Q8399 256 8396 223ZM8173 454Q8114 454 8076 414Q8039 374 8031 296L8316 296Q8316 372 8278 413Q8240 454 8173 454Z" fill="#5f0f40" style=""></path></g></g></g></svg>